<svg xmlns="http://www.w3.org/2000/svg" version="1.1" xmlns:xlink="http://www.w3.org/1999/xlink" xmlns:svgjs="http://svgjs.dev/svgjs" width="2000" height="1247" viewBox="0 0 2000 1247"><g transform="matrix(1,0,0,1,-1.2121212121212466,0.504858299595071)"><svg viewBox="0 0 396 247" data-background-color="#ffffff" preserveAspectRatio="xMidYMid meet" height="1247" width="2000" xmlns="http://www.w3.org/2000/svg" xmlns:xlink="http://www.w3.org/1999/xlink"><g id="tight-bounds" transform="matrix(1,0,0,1,0.2400000000000091,-0.09999999999999432)"><svg viewBox="0 0 395.52 247.2" height="247.2" width="395.52"><g><svg></svg></g><g><svg viewBox="0 0 395.52 247.2" height="247.2" width="395.52"><mask id="2aa6a98c-555d-4697-bed3-cca0301545ea"><rect width="640" height="400" fill="white"></rect><rect width="435.072" height="192.29199040526285" fill="black" y="27.45400479736857" x="-19.77600000000001" id="transform-me"></rect></mask><g transform="matrix(1,0,0,1,0,49.00156930198395)"><svg viewBox="0 0 395.52 149.1968613960321" height="149.1968613960321" width="395.52"><g><svg viewBox="0 0 395.52 149.1968613960321" height="149.1968613960321" width="395.52"><g><svg viewBox="0 0 395.52 149.1968613960321" height="149.1968613960321" width="395.52"><g><svg viewBox="0 0 395.52 149.1968613960321" height="149.1968613960321" width="395.52"><g id="textblocktransform"><svg viewBox="0 0 395.52 149.1968613960321" height="149.1968613960321" width="395.52" id="textblock"><g><svg viewBox="0 0 395.52 91.27384615384615" height="91.27384615384615" width="395.52"><g transform="matrix(1,0,0,1,0,0)"><svg width="395.52" viewBox="2.5 -35 199.73 45.75" height="91.27384615384615" data-palette-color="#000000"><g class="wordmark-text-0" data-fill-palette-color="primary" id="text-0"><path d="M11.75 0.75Q7.3 0.75 4.9-1.15 2.5-3.05 2.5-6L2.5-6Q2.5-7.95 3.35-9.85L3.35-9.85Q3.7-10.75 4.25-11.5L4.25-11.5Q6.3-12 8.7-12.4L8.7-12.4Q14.1-13.3 18.25-13.5L18.25-13.5 18.25-15Q18.25-20.55 16.9-22.65 15.55-24.75 12.75-24.75L12.75-24.75Q11.7-24.75 10.95-24.5L10.95-24.5 10.25-24.25 10.25-16.75 9.6-16.6Q8.8-16.5 8.25-16.5L8.25-16.5Q6.55-16.5 5.53-17.53 4.5-18.55 4.5-20.25L4.5-20.25Q4.5-22.55 6.83-24.15 9.15-25.75 13.75-25.75L13.75-25.75Q17.65-25.75 20.48-24.38 23.3-23 24.78-20.58 26.25-18.15 26.25-15L26.25-15 26.25-1.5 29.25-0.75 29.25 0 24.75 0Q21.75 0 20.1-1.85L20.1-1.85Q19.4-2.6 19-3.75L19-3.75Q18.3-2.5 17.35-1.5L17.35-1.5Q15.1 0.75 11.75 0.75L11.75 0.75ZM13.75-1Q15.6-1 17.1-3L17.1-3Q17.65-3.75 18.25-5L18.25-5 18.25-12.25Q15.95-12.25 13.85-12L13.85-12Q12.3-11.8 11.75-11.75L11.75-11.75Q11.5-11.2 11.25-10.25L11.25-10.25Q10.75-8.35 10.75-6.5L10.75-6.5Q10.75-3.7 11.6-2.35 12.45-1 13.75-1L13.75-1ZM32.25 0L32.25-0.75 35.25-1.5 35.25-23.5 32.25-24.25 32.25-25 36.75-25Q39.7-25 41.4-23.1L41.4-23.1Q42.05-22.35 42.5-21.25L42.5-21.25Q43.25-22.35 44.35-23.25L44.35-23.25Q46.85-25.25 49.95-25.25L49.95-25.25Q52.6-25.25 53.92-24.03 55.25-22.8 55.25-20.5L55.25-20.5Q55.25-18.8 54.22-17.78 53.2-16.75 51.5-16.75L51.5-16.75Q50.8-16.75 50.1-16.85L50.1-16.85 49.5-17 49.5-24Q46.95-24 44.85-22L44.85-22Q43.85-21 43.25-20L43.25-20 43.25-1.5 46.25-0.75 46.25 0 32.25 0ZM70.5 0.75Q67.2 0.75 64.77-0.45 62.35-1.65 61.05-3.75 59.75-5.85 59.75-8.5L59.75-8.5 59.75-23.75 56.25-23.75 56.25-25 59.75-25 59.75-27.5Q59.75-32 64.25-32L64.25-32 67.75-32 67.75-25 74.75-25 74.75-23.75 67.75-23.75 67.75-8.5Q67.75-3.9 68.7-2.2 69.65-0.5 71.5-0.5L71.5-0.5Q73.3-0.5 74.65-2.25 76-4 76-7L76-7 77.25-7Q77.25-3.3 75.4-1.28 73.55 0.75 70.5 0.75L70.5 0.75ZM97.49 5L77.99 5 77.99 2.75 97.49 2.75 97.49 5ZM115.99 0.75Q112.64 0.75 110.39-1.5L110.39-1.5Q109.44-2.5 108.74-3.75L108.74-3.75Q108.39-2.65 107.54-1.75L107.54-1.75Q105.64 0.25 101.99 0.25L101.99 0.25 101.49 0.25 101.49-33.5 98.49-34.25 98.49-35 104.99-35Q109.49-35 109.49-30.5L109.49-30.5 109.49-23.75Q110.29-24.4 111.04-24.75L111.04-24.75Q112.84-25.75 115.24-25.75L115.24-25.75Q120.29-25.75 123.27-22.33 126.24-18.9 126.24-12.5L126.24-12.5Q126.24-8.25 124.89-5.28 123.54-2.3 121.24-0.78 118.94 0.75 115.99 0.75L115.99 0.75ZM113.99-1Q115.59-1 116.67-3.53 117.74-6.05 117.74-12.5L117.74-12.5Q117.74-19.25 116.57-21.75 115.39-24.25 113.24-24.25L113.24-24.25Q111.94-24.25 110.59-23.25L110.59-23.25Q110.19-22.95 109.49-22.25L109.49-22.25 109.49-5Q109.94-3.85 110.59-3L110.59-3Q112.09-1 113.99-1L113.99-1ZM135.74 10.75Q133.49 10.75 132.24 9.55 130.99 8.35 130.99 6.25L130.99 6.25Q130.99 4.35 132.01 3.3 133.04 2.25 134.74 2.25L134.74 2.25Q135.14 2.25 135.54 2.33 135.94 2.4 136.09 2.4L136.09 2.4 136.74 2.5 136.74 9.25Q138.19 9 139.29 7.65 140.39 6.3 141.74 3L141.74 3 142.74 0.5 129.74-23.5 127.24-24.25 127.24-25 133.49-25Q136.09-25 137.61-23.93 139.14-22.85 140.24-20.75L140.24-20.75 146.49-9.2 151.74-22.75 147.99-24.25 147.99-25 157.24-25 157.24-24.25 153.24-22.75 143.24 3Q141.64 7.1 139.84 8.93 138.04 10.75 135.74 10.75L135.74 10.75ZM174.99 0L159.74 0 159.74-0.75 163.24-1.75 163.24-29.2 157.99-25.5 156.99-26.75 166.09-35 171.49-35 171.49-1.75 174.99-0.75 174.99 0ZM184.23 0Q184.23-4.95 185.61-8.78 186.98-12.6 188.93-15.33 190.88-18.05 194.03-21.5L194.03-21.5Q196.78-24.5 198.36-26.63 199.93-28.75 200.73-31.25L200.73-31.25 182.98-31.25Q182.63-28.55 181.28-26.75L181.28-26.75Q180.73-25.9 179.98-25.25L179.98-25.25 178.48-25.25 178.48-35 202.23-35 202.23-32.75Q202.23-29.95 201.36-27.55 200.48-25.15 198.63-21.35L198.63-21.35Q196.83-17.8 195.71-15.05 194.58-12.3 193.78-8.47 192.98-4.65 192.98 0L192.98 0 184.23 0Z" fill="#ffffff" data-fill-palette-color="primary"></path></g></svg></g></svg></g><g transform="matrix(1,0,0,1,98.88,112.82141065846153)"><svg viewBox="0 0 197.76 36.37545073757057" height="36.37545073757057" width="197.76"><g transform="matrix(1,0,0,1,0,0)"><svg width="197.76" viewBox="2 -38.1 274.53 50.5" height="36.37545073757057" data-palette-color="#111111"><path d="M12.1 10.2L12.1 11.7 2 11.7 2 10.2 2.6 10.2Q3.7 10.2 4.23 9.85 4.75 9.5 4.83 9.15 4.9 8.8 4.9 8L4.9 8 4.9-17.9Q4.9-20.2 2-20.2L2-20.2 2-21.5Q2.95-21.5 5-22.28 7.05-23.05 8-23.7L8-23.7 8.9-23.8 8.9-17.5Q9.95-20.35 12.3-22.18 14.65-24 18.1-24 21.55-24 23.58-21.75 25.6-19.5 25.6-15.7L25.6-15.7Q25.6-8.65 21.9-3.98 18.2 0.7 12.9 0.7L12.9 0.7Q11.05 0.7 8.9-0.3L8.9-0.3 8.9 8.2Q8.9 8.9 9 9.25L9 9.25Q9.25 10.2 11.1 10.2L11.1 10.2 12.1 10.2ZM8.9-13.4L8.9-13.4 8.9-4.5Q9.1-4.2 9.5-3.7 9.9-3.2 11.18-2.4 12.45-1.6 13.8-1.6L13.8-1.6Q17.45-1.6 19.88-5.05 22.3-8.5 22.3-13.8L22.3-13.8Q22.3-16.75 20.48-18.68 18.65-20.6 15.93-20.6 13.2-20.6 11.05-17.57 8.9-14.55 8.9-13.4ZM54.4-1.4L54.4 0 45.7 0 45.7-1.4 46-1.4Q46.5-1.4 46.85-1.93 47.2-2.45 47.2-3.3L47.2-3.3 47.2-16Q47.2-20.6 43.2-20.6L43.2-20.6Q40.35-20.6 38.17-17.6 36-14.6 36-13.1L36-13.1 36-3.6Q36-2.85 36.1-2.45L36.1-2.45Q36.35-1.4 38.2-1.4L38.2-1.4 39.2-1.4 39.2 0 29.1 0 29.1-1.4 29.8-1.4Q31.15-1.4 31.57-1.88 32-2.35 32-3.3L32-3.3 32-33Q32-33.95 31.35-34.38 30.7-34.8 29.1-34.8L29.1-34.8 29.1-36.2Q30.15-36.2 32.2-36.75 34.25-37.3 35.1-37.9L35.1-37.9 36-38.1 36-17.4Q38.6-24 45.4-24L45.4-24Q47.2-24 48.47-23.2 49.75-22.4 50.3-21.15L50.3-21.15Q51.3-19.05 51.3-16.9L51.3-16.9 51.3-3.4Q51.3-2.7 51.4-2.35L51.4-2.35Q51.6-1.4 53.4-1.4L53.4-1.4 54.4-1.4ZM67.7 0.7L67.7 0.7Q63.3 0.7 60.35-2.6 57.4-5.9 57.4-10.3L57.4-10.3Q57.4-15.9 61.62-19.95 65.84-24 70.55-24 75.25-24 78.12-20.68 81-17.35 81-13L81-13Q81-7.55 76.97-3.43 72.95 0.7 67.7 0.7ZM60.9-13Q60.9-8.35 63.72-5.28 66.55-2.2 70.07-2.2 73.59-2.2 75.59-4.85 77.59-7.5 77.59-10.3L77.59-10.3Q77.59-14.55 74.97-17.73 72.34-20.9 68.59-20.9 64.84-20.9 62.87-18.38 60.9-15.85 60.9-13L60.9-13ZM98.69-3.1L98.69-3.1 99.09-1.9Q95.34 0.7 90.89 0.7L90.89 0.7Q89.29 0.7 88.14-0.45 86.99-1.6 86.99-3.5L86.99-3.5 86.99-21.2 84.09-21.2 84.09-23.3 85.19-23.3Q86.84-23.3 88.27-25.3 89.69-27.3 89.69-29L89.69-29 90.99-29 90.99-23.3 97.79-23.3 97.79-21.2 92.89-21.2Q90.99-21.2 90.99-19.4L90.99-19.4 90.99-5.1Q90.99-1.8 93.39-1.8L93.39-1.8Q96.09-1.8 98.69-3.1ZM110.99 0.7L110.99 0.7Q106.59 0.7 103.64-2.6 100.69-5.9 100.69-10.3L100.69-10.3Q100.69-15.9 104.92-19.95 109.14-24 113.84-24 118.54-24 121.42-20.68 124.29-17.35 124.29-13L124.29-13Q124.29-7.55 120.27-3.43 116.24 0.7 110.99 0.7ZM104.19-13Q104.19-8.35 107.02-5.28 109.84-2.2 113.37-2.2 116.89-2.2 118.89-4.85 120.89-7.5 120.89-10.3L120.89-10.3Q120.89-14.55 118.27-17.73 115.64-20.9 111.89-20.9 108.14-20.9 106.17-18.38 104.19-15.85 104.19-13L104.19-13ZM134.64-2.6L134.64-2.6 139.64-2.8Q145.34-2.8 147.54-1.58 149.74-0.35 149.74 2.35 149.74 5.05 148.19 7.05 146.64 9.05 144.14 10.2L144.14 10.2Q139.19 12.4 133.54 12.4L133.54 12.4Q130.24 12.4 128.19 10.83 126.14 9.25 126.14 6.9L126.14 6.9Q126.14 1.4 130.84-0.2L130.84-0.2Q129.69-0.2 128.96-0.7 128.24-1.2 128.24-1.83 128.24-2.45 128.44-3.05 128.64-3.65 129.09-4.28 129.54-4.9 129.86-5.28 130.19-5.65 130.94-6.4L130.94-6.4 131.94-7.4Q129.24-9.8 129.24-13.93 129.24-18.05 132.34-21.08 135.44-24.1 139.14-24.1L139.14-24.1Q141.44-24.1 143.24-22.8L143.24-22.8Q145.34-25.2 150.24-25.2L150.24-25.2 149.74-20.9Q149.44-21.35 148.69-21.78 147.94-22.2 147.54-22.2L147.54-22.2Q146.19-22.2 144.74-21.3L144.74-21.3Q146.64-19.1 146.64-16L146.64-16Q146.64-12.1 143.64-9.05 140.64-6 136.84-6L136.84-6Q134.89-6 133.64-6.7L133.64-6.7Q131.54-4.2 131.54-3.6L131.54-3.6Q131.54-2.6 134.64-2.6ZM137.14-0.1L137.14-0.1 133.64-0.1Q132.09 0.85 131.59 1.35 131.09 1.85 130.74 2.3 130.39 2.75 130.14 3.2L130.14 3.2Q129.64 4.25 129.64 5.55 129.64 6.85 130.84 7.8L130.84 7.8Q132.89 9.3 136.56 9.3 140.24 9.3 143.39 8.05 146.54 6.8 146.54 4.6 146.54 2.4 143.99 1.15 141.44-0.1 137.14-0.1ZM132.44-15.68Q132.44-13 134.31-10.95 136.19-8.9 138.54-8.9 140.89-8.9 142.16-10.38 143.44-11.85 143.44-14.33 143.44-16.8 141.61-19 139.79-21.2 137.34-21.2 134.89-21.2 133.66-19.78 132.44-18.35 132.44-15.68ZM163.69-1.4L163.69 0 152.89 0 152.89-1.4 153.69-1.4Q155.04-1.4 155.41-1.85 155.79-2.3 155.79-3.3L155.79-3.3 155.79-18.3Q155.79-19.25 155.16-19.68 154.54-20.1 152.89-20.1L152.89-20.1 152.89-21.5Q153.89-21.5 155.91-22.23 157.94-22.95 158.99-23.6L158.99-23.6 159.89-23.8 159.89-17.6Q161.69-21.55 163.99-22.83 166.29-24.1 170.79-24.1L170.79-24.1 170.49-18.3 168.99-18.3Q168.99-19 168.46-19.65 167.94-20.3 166.79-20.3L166.79-20.3Q164.29-20.3 162.09-17.6 159.89-14.9 159.89-12.4L159.89-12.4 159.89-3.6Q159.89-2.8 159.96-2.45 160.04-2.1 160.54-1.75 161.04-1.4 162.09-1.4L162.09-1.4 163.69-1.4ZM194.43-1.4L194.43 0 187.23 0 187.23-4Q184.73-1.3 183.08-0.3 181.43 0.7 178.61 0.7 175.78 0.7 174.21-0.63 172.63-1.95 172.63-4.35 172.63-6.75 174.71-9.03 176.78-11.3 179.56-12.48 182.33-13.65 184.43-14.28 186.53-14.9 187.23-14.9L187.23-14.9 187.23-16Q187.23-20.7 183.33-20.7L183.33-20.7Q180.63-20.7 178.31-19.55 175.98-18.4 174.83-16.6L174.83-16.6 173.83-17.5Q177.18-24 185.43-24L185.43-24Q187.53-24 188.91-22.88 190.28-21.75 190.76-20.25 191.23-18.75 191.23-16.9L191.23-16.9 191.23-3.4Q191.23-2.75 191.33-2.4 191.43-2.05 191.96-1.73 192.48-1.4 193.53-1.4L193.53-1.4 194.43-1.4ZM187.23-6.8L187.23-6.8 187.23-12.9Q183.33-12.15 179.98-9.9 176.63-7.65 176.63-5L176.63-5Q176.63-3.95 177.66-3.18 178.68-2.4 180.21-2.4 181.73-2.4 183.83-3.78 185.93-5.15 187.23-6.8ZM208.23 10.2L208.23 11.7 198.13 11.7 198.13 10.2 198.73 10.2Q199.83 10.2 200.36 9.85 200.88 9.5 200.96 9.15 201.03 8.8 201.03 8L201.03 8 201.03-17.9Q201.03-20.2 198.13-20.2L198.13-20.2 198.13-21.5Q199.08-21.5 201.13-22.28 203.18-23.05 204.13-23.7L204.13-23.7 205.03-23.8 205.03-17.5Q206.08-20.35 208.43-22.18 210.78-24 214.23-24 217.68-24 219.71-21.75 221.73-19.5 221.73-15.7L221.73-15.7Q221.73-8.65 218.03-3.98 214.33 0.7 209.03 0.7L209.03 0.7Q207.18 0.7 205.03-0.3L205.03-0.3 205.03 8.2Q205.03 8.9 205.13 9.25L205.13 9.25Q205.38 10.2 207.23 10.2L207.23 10.2 208.23 10.2ZM205.03-13.4L205.03-13.4 205.03-4.5Q205.23-4.2 205.63-3.7 206.03-3.2 207.31-2.4 208.58-1.6 209.93-1.6L209.93-1.6Q213.58-1.6 216.01-5.05 218.43-8.5 218.43-13.8L218.43-13.8Q218.43-16.75 216.61-18.68 214.78-20.6 212.06-20.6 209.33-20.6 207.18-17.57 205.03-14.55 205.03-13.4ZM250.53-1.4L250.53 0 241.83 0 241.83-1.4 242.13-1.4Q242.63-1.4 242.98-1.93 243.33-2.45 243.33-3.3L243.33-3.3 243.33-16Q243.33-20.6 239.33-20.6L239.33-20.6Q236.48-20.6 234.3-17.6 232.13-14.6 232.13-13.1L232.13-13.1 232.13-3.6Q232.13-2.85 232.23-2.45L232.23-2.45Q232.48-1.4 234.33-1.4L234.33-1.4 235.33-1.4 235.33 0 225.23 0 225.23-1.4 225.93-1.4Q227.28-1.4 227.7-1.88 228.13-2.35 228.13-3.3L228.13-3.3 228.13-33Q228.13-33.95 227.48-34.38 226.83-34.8 225.23-34.8L225.23-34.8 225.23-36.2Q226.28-36.2 228.33-36.75 230.38-37.3 231.23-37.9L231.23-37.9 232.13-38.1 232.13-17.4Q234.73-24 241.53-24L241.53-24Q243.33-24 244.6-23.2 245.88-22.4 246.43-21.15L246.43-21.15Q247.43-19.05 247.43-16.9L247.43-16.9 247.43-3.4Q247.43-2.7 247.53-2.35L247.53-2.35Q247.73-1.4 249.53-1.4L249.53-1.4 250.53-1.4ZM250.93 11.6L250.93 11.6 251.73 7.7 252.43 7.7Q252.53 8.25 253.33 8.93 254.13 9.6 255.03 9.6L255.03 9.6Q258.13 9.6 259.43 7.5 260.73 5.4 262.13-0.1L262.13-0.1 254.53-19.8Q254.08-20.85 253.58-21.33 253.08-21.8 252.03-21.8L252.03-21.8 251.33-21.8 251.33-23.3 261.13-23.3 261.13-21.8 260.83-21.8Q258.73-21.8 258.73-20.6L258.73-20.6Q258.73-20.35 259.23-19L259.23-19 264.33-5.4 269.93-19.5Q270.53-20.7 270.53-21L270.53-21Q270.53-21.45 269.95-21.63 269.38-21.8 267.63-21.8L267.63-21.8 267.23-21.8 267.23-23.3 276.53-23.3 276.53-21.8 276.03-21.8Q274.33-21.8 273.68-21.3 273.03-20.8 272.53-19.4L272.53-19.4 262.43 5.9Q261.08 9.2 259.2 10.8 257.33 12.4 254.13 12.4L254.13 12.4Q252.93 12.4 250.93 11.6Z" opacity="1" transform="matrix(1,0,0,1,0,0)" fill="#ffffff" class="slogan-text-1" data-fill-palette-color="secondary" id="text-1"></path></svg></g></svg></g></svg></g></svg></g><g></g></svg></g></svg></g></svg></g><g mask="url(#2aa6a98c-555d-4697-bed3-cca0301545ea)"><g transform="matrix(2.947182737572978, 0, 0, 2.947182737572978, 74.37236333489398, 1.0000000000000142)"><svg xmlns="http://www.w3.org/2000/svg" xmlns:xlink="http://www.w3.org/1999/xlink" version="1.1" x="0" y="0" viewBox="3.1333099389603314 3.4009506987809597 83.73260001293062 83.19809860243807" enable-background="new 0 0 90 90" xml:space="preserve" height="83.19809860243807" width="83.73260001293062" class="icon-none" data-fill-palette-color="accent" id="none"><path d="M43.647 22.982L53.351 6.47c0.705-1.2 2.137-1.768 3.473-1.377 9.869 2.888 18.24 9.31 23.642 17.802 1.284 2.018-0.176 4.659-2.567 4.659l-31.635 0C43.917 27.555 42.458 25.005 43.647 22.982zM60.927 37.183l15.899 27.349c1.202 2.067 4.219 2.001 5.318-0.122 4.627-8.938 5.972-19.403 3.508-29.386-0.333-1.351-1.544-2.304-2.936-2.31l-19.152-0.091C61.219 32.611 59.748 35.154 60.927 37.183zM43.961 62.607H12.326c-2.391 0-3.851 2.642-2.567 4.659 5.402 8.492 13.773 14.914 23.642 17.802 1.336 0.391 2.768-0.177 3.473-1.377l9.704-16.511C47.767 65.157 46.308 62.607 43.961 62.607zM60.119 54.878l-16.287 27.12c-1.231 2.05 0.282 4.661 2.673 4.6 10.061-0.259 19.877-4.129 27.433-11.103 1.023-0.944 1.273-2.464 0.607-3.686l-9.159-16.82C64.264 52.928 61.327 52.866 60.119 54.878zM29.073 53.16L13.173 25.811c-1.202-2.067-4.219-2.001-5.318 0.122C3.229 34.871 1.883 45.336 4.347 55.32c0.333 1.351 1.544 2.304 2.936 2.31l19.152 0.091C28.781 57.732 30.252 55.189 29.073 53.16zM29.89 35.122l16.287-27.12c1.231-2.05-0.282-4.661-2.673-4.6C33.443 3.662 23.627 7.531 16.071 14.505c-1.023 0.944-1.273 2.464-0.607 3.686l9.159 16.82C25.745 37.072 28.682 37.134 29.89 35.122z" fill="#ffffff" data-fill-palette-color="accent"></path></svg></g></g></svg></g><defs></defs></svg><rect width="395.52" height="247.2" fill="none" stroke="none" visibility="hidden"></rect></g></svg></g></svg>